# xmcd
#
# Track frame offsets:
#	150
#	45648
#	92012
#	118786
#	127702
#
# Disc length: 3453 seconds
#
# Revision: 1
# Processed by: cddbd v1.5.2PL0 Copyright (c) Steve Scherf et al.
# Submitted via: audiograbber 1.83.01
#
DISCID=360d7b05
DTITLE=Grateful Dead - 70-02-07 Fillmore West, San Francisco CA
DYEAR=1900
DGENRE=
TTITLE0=Uncle John's Band
TTITLE1=Black Peter
TTITLE2=Good Lovin'
TTITLE3=Not Fade Away
TTITLE4=Turn On Your Lovelight
EXTD=
EXTT0=
EXTT1=
EXTT2=
EXTT3=
EXTT4=
PLAYORDER=
